{"title":"Black.2012.DVDRip.x264-miRaGe","uid":7158572,"size":734604488,"categoryP":"video","categoryS":"movies","magnet":"?xt=urn:btih:5aa37bb90763d4fef95e81468fd227badc9449be&amp;dn=Black.2012.DVDRip.x264-miRaGe&amp;tr=udp%3A%2F%2Ftracker.openbittorrent.com%3A80&amp;tr=udp%3A%2F%2Fopen.demonii.com%3A1337&amp;tr=udp%3A%2F%2Ftracker.coppersurfer.tk%3A6969&amp;tr=udp%3A%2F%2Fexodus.desync.com%3A6969","seeders":0,"leechers":1,"uploader":"HeroMaster","files":-1,"time":1333531658,"description":"Black.2012.DVDRip.x264-miRaGe\n\n\nInformation:\n_______\n\ninfo: http://www.familyvideo.com/catalog/product_info.php?products_id=399547\nrelease date: 4/3/2012\nplot: When an armored car holdup goes horribly awry, Black, a bank robber from the wrong side of town, considers getting out of the game. While laying low, Black receives news from his cousin about a stash of uncut diamonds in a poorly guarded bank, and his plan to live on the straight and narrow grinds to a halt. With an opportunity that is too good to refuse, he puts together a crew and embarks on one last job before getting out for good.\n\n\nGeneral:\n_______\n\nComplete name : Black.2012.DVDRip.x264-miRaGe.mp4\nFormat : MPEG-4\nFormat profile : Base Media / Version 2\nCodec ID : mp42\nFile size : 701 MiB\nDuration : 1h 51mn\nOverall bit rate mode : Variable\nOverall bit rate : 880 Kbps\n\n\nVideo:\n_____\n\nID : 1\nFormat : AVC\nFormat/Info : Advanced Video Codec\nFormat profile : &lt;a class=&quot;__cf_email__&quot; href=&quot;/cdn-cgi/l/email-protection&quot; data-cfemail=&quot;fbb69a9295bbb7c8d5cb&quot;&gt;[email&amp;#160;protected]&lt;/a&gt;&lt;script cf-hash='f9e31' type=&quot;text/javascript&quot;&gt;\n/* &lt;![CDATA[ */!function(){try{var t=&quot;currentScript&quot;in document?document.currentScript:function(){for(var t=document.getElementsByTagName(&quot;script&quot;),e=t.length;e--;)if(t[e].getAttribute(&quot;cf-hash&quot;))return t[e]}();if(t&amp;&amp;t.previousSibling){var e,r,n,i,c=t.previousSibling,a=c.getAttribute(&quot;data-cfemail&quot;);if(a){for(e=&quot;&quot;,r=parseInt(a.substr(0,2),16),n=2;a.length-n;n+=2)i=parseInt(a.substr(n,2),16)^r,e+=String.fromCharCode(i);e=document.createTextNode(e),c.parentNode.replaceChild(e,c)}}}catch(u){}}();/* ]]&gt; */&lt;/script&gt;\nFormat settings, CABAC : Yes\nFormat settings, ReFrames : 2 frames\nCodec ID : avc1\nCodec ID/Info : Advanced Video Coding\nDuration : 1h 51mn\nDuration_FirstFrame : 33ms\nBit rate mode : Variable\nBit rate : 716 Kbps\nWidth : 718 pixels\nHeight : 368 pixels\nDisplay aspect ratio : 2.35:1\nFrame rate mode : Constant\nFrame rate : 29.970 fps\nColor space : YUV\nChroma subsampling : 4:2:0\nBit depth : 8 bits\nScan type : Progressive\nBits/(Pixel*Frame) : 0.090\nStream size : 570 MiB (81%)\nWriting library : x264 core 79\n\n\nAudio\n_____\n\nID : 2\nFormat : AAC\nFormat/Info : Advanced Audio Codec\nFormat profile : LC\nCodec ID : 40\nDuration : 1h 51mn\nBit rate mode : Variable\nBit rate : 160 Kbps\nMaximum bit rate : 201 Kbps\nChannel(s) : 2 channels\nChannel positions : Front: L R\nSampling rate : 48.0 KHz\nCompression mode : Lossy\nStream size : 127 MiB (18%)\nLanguage : English\n\n\nPoster:\n\n &lt;a href=&quot;\nhttp://i.imgur.com/X53uI.jpg&quot; rel=&quot;nofollow&quot; target=&quot;_NEW&quot;&gt;\nhttp://i.imgur.com/X53uI.jpg&lt;/a&gt;\n\n\nScreenshots:\n\n &lt;a href=&quot;\nhttp://i.imgur.com/ONojD.jpg&quot; rel=&quot;nofollow&quot; target=&quot;_NEW&quot;&gt;\nhttp://i.imgur.com/ONojD.jpg&lt;/a&gt;\n\n\nENJOY!","torrent":{"xt":"urn:btih:5aa37bb90763d4fef95e81468fd227badc9449be","amp;dn":"Black.2012.DVDRip.x264-miRaGe","amp;tr":["udp%3A%2F%2Ftracker.openbittorrent.com%3A80","udp%3A%2F%2Fopen.demonii.com%3A1337","udp%3A%2F%2Ftracker.coppersurfer.tk%3A6969","udp%3A%2F%2Fexodus.desync.com%3A6969"],"infoHash":"5aa37bb90763d4fef95e81468fd227badc9449be","infoHashBuffer":{"type":"Buffer","data":[90,163,123,185,7,99,212,254,249,94,129,70,143,210,39,186,220,148,73,190]},"announce":[],"urlList":[]}}